<?xml version="1.0" standalone="no"?>
<!DOCTYPE svg PUBLIC "-//W3C//DTD SVG 20010904//EN"
 "http://www.w3.org/TR/2001/REC-SVG-20010904/DTD/svg10.dtd">
<svg version="1.0" xmlns="http://www.w3.org/2000/svg"
 width="800.000000pt" height="800.000000pt" viewBox="0 0 800.000000 800.000000"
 preserveAspectRatio="xMidYMid meet">
<metadata>
Created by potrace 1.14, written by Peter Selinger 2001-2017
</metadata>
<g transform="translate(0.000000,800.000000) scale(0.100000,-0.100000)"
fill="#000000" stroke="none">
<path d="M6737 6904 c-4 -4 42 -45 101 -92 59 -46 123 -97 142 -112 32 -26
411 -326 489 -388 19 -15 73 -58 120 -95 47 -37 93 -73 101 -80 9 -7 36 -28
60 -48 65 -52 66 -52 62 -11 -3 33 -13 44 -90 104 -48 37 -98 76 -112 87 -14
11 -65 52 -115 92 -49 39 -99 79 -110 88 -11 9 -60 48 -110 86 -49 39 -99 78
-110 87 -11 9 -96 78 -190 152 -134 107 -177 135 -201 136 -17 0 -34 -3 -37
-6z"/>
<path d="M7065 6826 c61 -48 126 -101 147 -117 20 -17 130 -104 245 -195 114
-91 215 -170 223 -177 45 -37 90 -69 90 -63 0 3 -7 24 -16 46 -17 41 -51 70
-524 444 -74 59 -143 114 -153 122 -10 8 -42 18 -70 21 l-52 6 110 -87z"/>
<path d="M6568 6863 c-10 -2 -18 -8 -18 -11 0 -4 42 -38 92 -77 50 -38 98 -77
108 -85 10 -8 35 -28 56 -45 45 -35 153 -120 174 -138 8 -7 29 -23 46 -37 17
-14 46 -37 65 -52 32 -25 386 -305 602 -476 53 -42 101 -78 106 -80 5 -2 11 9
13 25 3 25 -10 38 -127 131 -71 56 -146 116 -165 131 -19 16 -83 66 -142 112
-58 46 -177 140 -263 209 -87 69 -178 140 -204 159 -25 19 -48 37 -51 40 -19
23 -252 201 -262 200 -7 -1 -21 -3 -30 -6z"/>
<path d="M6422 6797 c-12 -6 -21 -14 -20 -19 2 -4 68 -60 148 -123 80 -63 150
-118 155 -123 6 -4 41 -32 80 -62 38 -30 79 -63 90 -72 11 -9 58 -46 105 -83
47 -37 101 -80 120 -95 39 -32 188 -149 245 -195 21 -16 124 -98 229 -182
l191 -151 12 26 c10 24 9 29 -10 44 -12 9 -115 90 -228 180 -113 89 -219 173
-235 185 -48 37 -74 57 -102 81 -15 12 -71 57 -125 100 -101 80 -510 403 -537
425 -88 70 -95 74 -118 64z"/>
<path d="M7400 6757 c0 -2 28 -25 63 -51 34 -26 46 -33 27 -16 -40 36 -90 73
-90 67z"/>
<path d="M6287 6702 c-15 -17 -1 -30 249 -227 146 -116 278 -220 292 -232 34
-26 385 -305 431 -341 18 -15 125 -100 238 -189 112 -90 208 -163 213 -163 6
0 10 4 10 9 0 5 3 16 6 24 3 10 -45 54 -158 143 -90 70 -177 139 -194 153 -17
14 -48 40 -69 56 -21 17 -87 68 -145 115 -59 47 -125 99 -146 115 -21 17 -70
55 -109 86 -601 477 -591 469 -597 469 -3 0 -12 -8 -21 -18z"/>
<path d="M6177 6597 c-16 -19 -15 -21 6 -36 12 -9 31 -23 42 -33 11 -9 146
-116 300 -238 154 -121 287 -227 296 -234 10 -8 48 -38 85 -67 38 -30 71 -56
74 -59 5 -6 138 -110 190 -150 18 -14 40 -32 50 -40 10 -8 32 -26 50 -40 19
-14 50 -38 70 -55 38 -31 50 -40 199 -157 81 -64 86 -67 104 -50 18 16 18 18
-25 54 -35 29 -368 295 -493 393 -45 35 -208 164 -225 178 -8 6 -80 64 -160
127 -80 62 -230 182 -335 265 -104 83 -195 154 -200 157 -6 4 -18 -3 -28 -15z"/>
<path d="M6082 6479 c-7 -12 -12 -22 -10 -23 2 -2 68 -54 148 -117 80 -63 152
-119 160 -126 25 -20 362 -287 605 -480 127 -100 302 -239 390 -308 145 -115
160 -125 172 -109 7 10 13 21 13 25 0 4 -73 65 -162 136 -90 70 -199 157 -244
193 -205 162 -627 496 -684 540 -25 19 -54 43 -65 52 -58 49 -300 238 -305
238 -3 0 -11 -9 -18 -21z"/>
<path d="M6002 6368 c-7 -7 -12 -19 -11 -27 0 -9 126 -115 281 -236 154 -121
286 -225 292 -230 6 -6 74 -60 151 -120 77 -60 142 -112 145 -115 3 -3 23 -19
45 -35 22 -17 42 -32 45 -35 8 -8 63 -53 100 -80 29 -22 59 -45 132 -105 89
-73 261 -205 266 -205 4 0 13 9 19 19 14 22 15 22 -147 146 -36 28 -67 52 -70
55 -3 3 -36 30 -75 60 -38 30 -75 59 -81 65 -7 5 -24 19 -40 30 -15 11 -32 25
-38 31 -6 5 -65 52 -131 104 -66 52 -151 119 -190 150 -38 31 -110 87 -158
125 -49 39 -94 75 -100 80 -7 6 -88 70 -182 144 -93 73 -179 140 -190 149 -51
42 -51 42 -63 30z"/>
<path d="M5912 6238 c-7 -7 -12 -17 -12 -22 0 -6 41 -42 91 -81 50 -38 103
-80 118 -92 14 -12 109 -87 211 -168 102 -80 192 -152 201 -159 9 -7 101 -80
205 -162 104 -81 191 -151 194 -154 3 -3 23 -19 45 -35 22 -17 42 -32 45 -36
3 -3 83 -67 179 -143 160 -127 176 -136 188 -120 7 10 13 21 13 25 0 4 -51 47
-112 95 -62 48 -127 99 -144 113 -17 14 -40 33 -50 41 -11 8 -33 26 -50 40
-17 14 -45 36 -64 50 -18 14 -61 48 -95 75 -34 28 -119 95 -189 150 -71 55
-133 105 -140 110 -6 6 -85 69 -176 140 -91 71 -167 132 -170 135 -3 3 -34 28
-70 55 -36 27 -67 52 -70 55 -9 11 -126 100 -131 100 -3 0 -10 -5 -17 -12z"/>
<path d="M5823 6107 c-10 -21 0 -31 135 -137 241 -191 505 -399 542 -429 113
-91 456 -362 500 -396 29 -22 57 -45 64 -50 68 -63 208 -164 220 -159 35 13
23 35 -52 94 -42 33 -93 74 -112 89 -19 16 -96 76 -170 135 -74 59 -142 112
-150 119 -8 7 -44 35 -80 62 -36 28 -67 52 -70 55 -3 3 -25 21 -50 40 -25 19
-47 37 -50 40 -3 3 -34 28 -70 55 -36 28 -67 53 -70 56 -3 3 -84 67 -180 143
-96 76 -191 151 -210 166 -132 106 -176 140 -181 140 -3 0 -10 -10 -16 -23z"/>
<path d="M5742 5988 c-20 -20 -14 -31 36 -68 26 -19 56 -43 67 -53 11 -10 52
-43 91 -72 39 -29 100 -77 136 -107 36 -29 81 -65 99 -80 101 -78 358 -282
535 -423 111 -88 237 -187 279 -220 43 -33 83 -65 89 -70 6 -6 35 -29 64 -52
46 -36 56 -40 68 -28 8 7 14 18 14 23 0 8 -51 52 -127 110 -17 12 -104 81
-194 153 -90 72 -179 142 -198 157 -19 15 -127 100 -240 190 -113 90 -219 174
-236 187 -16 13 -126 100 -244 194 -118 94 -218 171 -221 171 -3 0 -11 -5 -18
-12z"/>
<path d="M5654 5855 c-4 -14 -5 -27 -3 -29 188 -149 439 -347 464 -366 37 -28
128 -100 638 -504 191 -152 352 -276 357 -276 5 0 14 9 20 20 9 17 -2 29 -101
107 -168 132 -369 291 -409 323 -19 16 -118 94 -220 175 -102 80 -192 151
-200 158 -8 7 -100 80 -205 162 -104 82 -219 173 -255 202 -36 29 -68 53 -72
53 -4 0 -10 -11 -14 -25z"/>
<path d="M4676 5832 c17 -15 47 -39 65 -53 40 -31 442 -349 579 -458 53 -42
113 -89 134 -106 21 -16 44 -35 50 -40 6 -6 40 -33 76 -60 36 -28 67 -53 70
-56 3 -3 52 -42 110 -88 58 -45 120 -94 139 -109 19 -15 104 -82 190 -150 86
-67 163 -128 171 -135 8 -7 35 -28 60 -47 25 -19 47 -37 50 -40 3 -3 92 -75
199 -159 152 -121 197 -152 209 -144 37 23 80 -14 -708 609 -209 166 -467 370
-510 404 -19 15 -64 51 -100 79 -36 28 -72 57 -80 64 -8 7 -155 123 -327 259
-291 231 -314 247 -360 252 l-48 5 31 -27z"/>
<path d="M4475 5842 c-39 -8 -35 -19 17 -59 40 -30 573 -451 678 -536 22 -18
287 -227 425 -336 66 -52 156 -123 200 -158 44 -36 87 -70 95 -76 8 -7 112
-88 230 -182 118 -93 229 -181 246 -195 17 -14 46 -37 65 -52 19 -14 83 -65
143 -112 86 -68 111 -84 122 -75 24 20 15 37 -42 81 -31 24 -73 57 -93 73 -21
17 -52 41 -70 55 -18 14 -38 30 -44 35 -7 6 -32 26 -57 45 -25 19 -47 37 -50
40 -3 3 -57 46 -120 95 -63 50 -124 97 -135 107 -11 9 -81 64 -155 123 -74 58
-142 111 -150 118 -31 26 -178 143 -203 162 -43 33 -373 294 -487 385 -59 47
-122 97 -141 112 -72 56 -317 250 -373 295 -72 58 -76 61 -101 55z"/>
<path d="M4286 5786 l-29 -11 79 -61 c44 -34 140 -110 214 -168 74 -59 149
-118 165 -131 49 -38 309 -244 325 -258 8 -7 44 -35 80 -62 35 -28 74 -58 85
-68 11 -10 45 -37 75 -60 30 -23 129 -101 220 -173 91 -72 215 -170 275 -218
61 -48 125 -99 144 -114 81 -64 447 -354 461 -365 8 -7 35 -28 60 -47 25 -19
47 -37 50 -40 3 -3 25 -21 50 -40 25 -19 47 -39 49 -43 3 -9 41 22 41 34 0 4
-28 29 -62 55 -35 27 -65 51 -68 54 -5 6 -332 265 -869 689 -163 128 -309 244
-326 258 -16 13 -37 30 -45 36 -182 144 -590 467 -735 582 -104 83 -194 154
-200 157 -5 3 -23 1 -39 -6z"/>
<path d="M4974 5792 c3 -6 93 -79 199 -162 105 -84 208 -165 227 -180 48 -39
513 -407 680 -539 115 -90 199 -157 221 -176 10 -7 48 -37 85 -66 38 -29 83
-65 100 -79 51 -41 63 -51 218 -173 118 -94 151 -115 162 -106 8 6 14 17 14
24 0 9 -211 183 -425 349 -16 13 -109 86 -205 162 -96 77 -195 155 -220 174
-25 19 -50 39 -56 45 -6 5 -23 19 -38 30 -15 11 -37 28 -49 39 -12 10 -38 30
-57 45 -19 14 -44 34 -55 43 -11 9 -92 74 -180 143 -88 69 -169 133 -180 143
-84 71 -282 209 -357 247 -50 26 -88 43 -84 37z"/>
<path d="M5571 5736 c-11 -13 -6 -46 8 -46 3 0 18 -10 32 -23 15 -12 41 -33
59 -47 18 -14 103 -81 190 -150 87 -69 215 -170 285 -225 70 -55 133 -105 139
-110 6 -6 40 -33 76 -60 36 -28 67 -53 70 -56 3 -3 59 -47 125 -99 66 -52 134
-105 151 -119 35 -30 28 -24 193 -154 98 -78 126 -95 137 -86 25 21 15 36 -73
106 -149 118 -411 325 -553 437 -74 59 -151 119 -170 135 -19 16 -127 101
-240 190 -113 89 -222 175 -242 192 -82 67 -163 129 -169 129 -4 0 -12 -6 -18
-14z"/>
<path d="M4140 5712 c-22 -18 -21 -18 255 -237 379 -300 480 -380 695 -550
102 -80 200 -158 219 -173 19 -15 62 -49 95 -75 34 -26 68 -53 76 -60 8 -7 35
-28 60 -47 25 -19 47 -37 50 -40 3 -3 57 -46 120 -95 63 -50 121 -96 129 -103
8 -8 39 -32 70 -55 31 -23 58 -44 61 -47 5 -6 41 -35 369 -295 161 -127 175
-136 188 -119 7 10 13 21 13 24 0 4 -57 51 -126 106 -69 54 -133 106 -144 114
-10 8 -33 27 -51 42 -19 14 -127 100 -240 190 -113 89 -221 174 -239 188 -18
14 -41 32 -51 40 -9 8 -41 33 -69 55 -28 22 -60 47 -70 55 -21 17 -33 27 -270
215 -97 77 -192 151 -210 165 -18 14 -40 32 -50 40 -10 8 -63 51 -119 95 -139
109 -322 253 -346 274 -11 9 -72 57 -135 106 -63 49 -117 92 -120 95 -3 3 -35
29 -71 58 -66 51 -67 52 -89 34z"/>
<path d="M4009 5614 c-8 -10 -9 -18 -3 -22 6 -4 55 -43 110 -86 54 -44 149
-119 209 -167 270 -213 481 -381 496 -394 10 -7 48 -37 85 -66 38 -29 83 -65
100 -79 48 -39 58 -47 244 -194 96 -76 184 -145 195 -155 11 -9 38 -30 60 -46
22 -17 51 -40 65 -52 14 -11 117 -94 230 -182 113 -89 221 -175 240 -190 19
-16 73 -59 120 -95 47 -37 103 -81 124 -99 69 -57 138 -107 147 -107 4 0 13 9
19 19 9 18 -4 31 -112 116 -68 53 -130 101 -138 108 -30 25 -259 206 -410 326
-85 67 -173 136 -194 154 -22 18 -63 50 -92 72 -29 22 -159 125 -291 229 -131
105 -303 241 -383 304 -80 63 -154 121 -165 130 -11 10 -40 33 -65 52 -25 19
-50 39 -56 45 -16 14 -29 24 -214 170 -91 71 -192 151 -224 177 -65 52 -77 56
-97 32z"/>
<path d="M5486 5608 c-15 -21 -15 -24 1 -36 10 -7 90 -70 178 -140 259 -205
550 -435 585 -462 18 -14 38 -30 44 -35 12 -11 144 -116 193 -153 16 -12 43
-33 59 -46 140 -115 385 -306 393 -306 6 0 15 9 21 19 10 19 3 27 -65 79 -51
39 -101 78 -105 82 -3 3 -34 28 -70 55 -36 28 -67 53 -70 56 -3 3 -84 68 -180
144 -96 75 -191 150 -210 165 -44 36 -146 116 -196 155 -34 27 -235 187 -274
218 -8 7 -69 54 -135 106 -66 52 -127 101 -136 108 -15 12 -19 11 -33 -9z"/>
<path d="M3909 5509 c-8 -17 -8 -24 3 -34 12 -12 242 -195 305 -243 16 -12 43
-33 59 -46 48 -40 248 -198 304 -241 29 -22 57 -45 64 -50 13 -12 918 -729
963 -763 16 -12 43 -33 59 -47 23 -19 258 -205 433 -343 70 -55 206 -163 223
-177 15 -13 19 -12 33 8 19 27 41 5 -210 202 -63 49 -349 275 -366 290 -10 7
-48 37 -85 66 -38 30 -71 56 -74 59 -3 3 -23 19 -45 35 -22 17 -42 32 -45 36
-3 3 -75 60 -160 128 -85 67 -162 127 -170 134 -8 7 -125 99 -260 206 -135
106 -261 206 -280 221 -19 15 -82 66 -140 111 -58 46 -211 167 -339 269 -128
102 -239 188 -246 193 -9 5 -18 0 -26 -14z"/>
<path d="M3820 5395 c-7 -8 -10 -21 -7 -28 4 -10 383 -314 656 -526 19 -14 52
-41 75 -59 63 -51 68 -55 116 -92 25 -19 47 -37 50 -40 3 -3 102 -82 220 -175
232 -183 451 -357 514 -408 36 -29 76 -60 182 -142 21 -16 41 -32 44 -36 3 -3
59 -47 125 -99 66 -52 134 -105 151 -119 17 -15 46 -38 65 -53 19 -14 74 -58
123 -97 49 -39 94 -71 99 -71 10 0 41 29 36 35 -4 3 -348 275 -404 319 -16 13
-123 97 -236 187 -114 90 -332 263 -485 384 -365 289 -446 353 -464 368 -8 7
-44 35 -80 62 -36 28 -70 55 -77 61 -6 6 -70 57 -140 112 -70 55 -222 175
-336 266 -115 91 -210 166 -211 166 -2 0 -9 -7 -16 -15z"/>
<path d="M3729 5268 c-13 -23 -2 -37 80 -98 19 -14 73 -56 121 -95 48 -38 144
-115 214 -170 71 -55 133 -105 140 -110 6 -6 97 -78 201 -160 105 -82 204
-160 221 -174 17 -15 46 -38 65 -53 19 -14 140 -110 269 -213 129 -102 250
-198 269 -213 45 -35 202 -159 221 -175 8 -7 134 -106 280 -221 146 -115 272
-216 282 -223 13 -12 20 -12 37 -1 12 7 21 15 21 19 0 3 -79 68 -176 145 -97
76 -363 288 -593 469 -229 182 -445 353 -479 380 -35 28 -112 88 -171 135 -58
47 -160 128 -226 180 -115 91 -288 227 -500 395 -110 88 -196 155 -237 185
l-27 21 -12 -23z"/>
<path d="M3642 5140 c-13 -22 -43 4 753 -626 165 -130 323 -255 351 -278 28
-23 66 -52 84 -66 18 -14 78 -61 134 -106 56 -44 211 -168 346 -274 135 -107
337 -267 449 -356 186 -149 206 -161 227 -152 13 6 24 15 24 19 0 4 -23 24
-52 45 -29 21 -80 61 -114 89 -34 27 -77 62 -95 77 -52 40 -212 167 -229 181
-8 6 -78 61 -155 122 -77 60 -149 117 -160 127 -18 15 -67 53 -260 206 -33 26
-65 51 -72 57 -16 13 -29 23 -83 65 -25 19 -47 37 -50 40 -3 3 -72 59 -155
124 -82 64 -157 123 -165 129 -8 7 -94 75 -190 151 -96 76 -195 154 -219 174
-24 21 -54 44 -65 52 -11 8 -79 61 -149 117 -71 57 -132 103 -135 103 -4 0
-13 -9 -20 -20z"/>
<path d="M3559 5019 c-13 -25 -3 -36 121 -132 30 -23 100 -78 155 -122 56 -44
127 -100 159 -125 32 -25 67 -53 79 -64 12 -10 49 -39 82 -64 33 -25 62 -49
65 -52 3 -3 23 -19 45 -36 22 -16 49 -37 60 -46 20 -16 157 -125 231 -183 21
-16 54 -43 75 -60 20 -16 60 -48 89 -70 28 -22 61 -48 73 -59 12 -10 38 -30
57 -45 19 -14 44 -34 55 -43 11 -9 61 -49 110 -88 50 -39 97 -76 105 -83 8 -7
35 -28 60 -47 25 -19 50 -39 57 -45 6 -5 24 -20 40 -32 15 -12 125 -98 243
-192 118 -94 220 -174 225 -178 6 -4 18 -14 27 -21 11 -9 26 -10 49 -5 l32 9
-99 79 c-103 81 -288 228 -314 248 -20 15 -168 133 -330 263 -69 55 -154 122
-190 149 -36 27 -67 52 -70 55 -3 3 -25 22 -50 41 -189 149 -626 495 -887 702
-97 77 -279 220 -330 259 -8 6 -16 2 -24 -13z"/>
<path d="M3472 4890 c-14 -23 -52 9 973 -800 127 -100 239 -189 250 -198 11
-10 49 -40 85 -67 36 -28 70 -54 76 -60 6 -5 29 -23 50 -40 21 -16 84 -66 139
-110 55 -45 152 -121 215 -170 63 -49 117 -92 120 -95 3 -3 45 -37 94 -75 73
-58 95 -70 127 -71 35 -1 53 9 30 18 -5 2 -26 17 -47 35 -22 17 -154 122 -294
233 -140 111 -264 209 -275 218 -11 10 -38 31 -60 47 -22 17 -46 36 -53 42 -7
7 -41 34 -75 60 -34 26 -130 102 -213 168 -83 66 -242 192 -353 280 -218 172
-405 320 -461 365 -156 125 -304 240 -309 240 -4 0 -12 -9 -19 -20z"/>
<path d="M2352 4789 c3 -7 70 -61 433 -348 99 -78 187 -147 195 -154 75 -61
547 -434 590 -467 25 -19 47 -37 50 -40 3 -3 39 -32 81 -65 136 -107 152 -119
235 -185 45 -36 128 -102 185 -147 57 -45 167 -131 244 -192 126 -100 141
-110 153 -94 6 9 12 22 11 27 0 6 -41 43 -91 81 -50 39 -182 142 -293 230
-111 88 -215 170 -232 183 -16 12 -43 33 -59 46 -35 29 -402 321 -744 591
-139 110 -302 239 -363 287 -60 48 -121 95 -134 105 -14 10 -34 26 -46 37
-100 85 -141 111 -178 112 -22 0 -38 -3 -37 -7z"/>
<path d="M3389 4769 c-12 -23 -6 -32 67 -89 11 -8 33 -26 50 -40 17 -14 48
-38 69 -55 22 -16 84 -66 140 -110 55 -44 129 -103 165 -130 36 -27 67 -52 70
-56 3 -3 39 -33 81 -65 42 -32 156 -123 255 -201 98 -78 274 -216 389 -308
116 -91 217 -171 225 -178 198 -163 319 -251 376 -273 36 -13 69 -24 75 -24
10 0 -150 131 -311 255 -28 22 -61 48 -73 59 -12 10 -38 30 -57 45 -19 14 -37
28 -40 31 -3 3 -68 55 -145 115 -77 60 -147 115 -155 122 -25 20 -285 226
-326 258 -21 17 -54 44 -75 60 -20 17 -60 48 -89 70 -28 22 -61 48 -73 59 -12
10 -38 30 -57 45 -19 14 -44 34 -55 43 -33 27 -366 290 -482 380 -8 6 -16 2
-24 -13z"/>
<path d="M2178 4772 c-37 -5 -35 -16 10 -49 20 -15 39 -30 42 -33 8 -8 63 -52
100 -80 18 -14 38 -30 44 -35 6 -6 29 -24 51 -40 22 -17 51 -40 65 -51 14 -12
129 -104 255 -203 127 -100 237 -187 245 -194 8 -7 33 -26 55 -42 22 -16 42
-32 45 -35 5 -5 82 -67 415 -330 66 -52 210 -167 321 -255 111 -88 237 -187
279 -220 43 -33 83 -65 89 -70 30 -28 222 -175 228 -175 4 0 12 9 19 21 9 17
7 23 -8 34 -11 8 -38 29 -60 47 -22 18 -64 51 -93 73 -29 22 -57 45 -64 50 -6
6 -58 48 -116 93 -117 92 -122 96 -166 132 -17 14 -46 36 -64 50 -18 14 -47
36 -64 50 -23 19 -398 317 -665 528 -19 15 -71 56 -116 92 -45 36 -95 75 -112
88 -16 12 -43 33 -59 46 -56 46 -391 311 -424 336 -19 14 -72 56 -119 94 -107
86 -101 82 -133 78z"/>
<path d="M2630 4760 c0 -4 12 -15 26 -25 14 -9 35 -25 47 -35 12 -11 94 -76
182 -145 88 -69 167 -131 175 -138 8 -7 35 -28 60 -47 24 -19 50 -39 56 -45 6
-5 60 -48 120 -95 59 -47 134 -105 165 -130 31 -25 74 -58 95 -75 21 -16 108
-86 195 -155 86 -69 203 -161 259 -205 56 -44 113 -90 128 -102 15 -12 97 -76
182 -144 85 -67 179 -142 209 -165 29 -24 57 -44 62 -44 8 0 33 40 27 44 -3 2
-92 72 -568 448 -74 59 -227 180 -340 270 -267 212 -474 375 -530 418 -25 19
-51 40 -58 48 -8 7 -30 25 -50 40 -21 15 -39 29 -42 32 -3 3 -66 53 -140 111
-105 83 -149 110 -197 126 -35 11 -63 17 -63 13z"/>
<path d="M1996 4707 c-18 -13 8 -36 269 -237 39 -30 72 -57 75 -60 3 -3 124
-100 270 -215 146 -115 355 -281 465 -368 110 -87 292 -231 405 -320 113 -89
207 -164 210 -167 3 -3 34 -27 70 -55 36 -27 74 -57 85 -67 36 -30 330 -262
370 -292 22 -17 42 -33 45 -36 3 -3 22 -18 42 -34 l37 -27 12 22 c14 27 26 16
-237 224 -104 82 -252 199 -329 260 -77 61 -219 173 -315 249 -96 76 -184 145
-195 154 -11 10 -85 68 -165 131 -153 121 -245 194 -270 214 -19 16 -180 143
-335 266 -144 113 -224 177 -246 196 -10 7 -48 37 -85 66 -38 29 -84 66 -102
81 -36 31 -50 34 -76 15z"/>
<path d="M3303 4641 c-14 -23 -7 -30 157 -157 63 -49 117 -91 120 -94 3 -3 57
-46 120 -95 63 -50 124 -97 135 -107 11 -9 54 -43 95 -75 41 -33 152 -120 245
-194 664 -527 582 -467 600 -443 8 10 14 21 14 24 0 3 -21 21 -47 40 -26 19
-49 37 -52 40 -6 6 -140 112 -190 150 -18 14 -41 32 -50 40 -10 8 -75 60 -145
115 -70 55 -166 132 -214 170 -49 39 -103 81 -121 95 -19 14 -48 37 -64 51
-74 62 -570 451 -580 455 -6 2 -16 -4 -23 -15z"/>
<path d="M1858 4626 c-18 -13 26 -51 401 -344 19 -15 94 -74 167 -132 72 -58
148 -118 169 -135 21 -16 95 -75 164 -130 69 -55 178 -141 241 -190 63 -49
117 -92 120 -95 3 -3 25 -21 50 -40 42 -32 368 -291 575 -455 50 -39 160 -127
245 -194 85 -67 164 -130 175 -140 11 -9 35 -27 53 -40 32 -22 34 -23 47 -5
16 22 19 34 7 34 -5 0 -17 8 -28 18 -10 9 -48 40 -84 67 -36 28 -67 53 -70 56
-3 3 -59 48 -125 100 -66 51 -199 157 -297 234 -97 77 -222 176 -278 220 -98
77 -117 93 -157 125 -10 9 -36 29 -58 45 -22 17 -45 35 -52 41 -7 6 -70 57
-140 112 -70 55 -211 167 -313 247 -102 81 -200 159 -219 174 -19 14 -51 40
-71 56 -20 17 -52 42 -71 57 -19 14 -119 94 -224 177 -104 83 -194 151 -200
151 -5 -1 -18 -7 -27 -14z"/>
<path d="M1743 4532 c-23 -19 -22 -19 42 -67 22 -17 42 -32 45 -35 4 -5 129
-104 686 -545 56 -44 119 -93 140 -110 34 -27 185 -146 224 -178 8 -7 125 -99
260 -206 135 -106 254 -200 265 -210 11 -9 126 -99 255 -201 129 -101 237
-187 240 -190 3 -3 61 -50 129 -104 96 -77 128 -97 139 -89 30 18 23 31 -45
84 -37 30 -77 62 -88 71 -18 15 -204 162 -480 380 -121 95 -122 97 -161 128
-17 14 -48 39 -69 55 -21 17 -109 86 -194 154 -86 68 -171 135 -190 150 -28
21 -113 89 -181 144 -8 7 -85 67 -170 134 -142 111 -554 437 -590 466 -28 22
-215 170 -226 179 -6 5 -19 1 -31 -10z"/>
<path d="M3222 4520 c-7 -11 -12 -22 -12 -25 0 -4 180 -150 235 -190 15 -11
32 -25 39 -30 6 -6 79 -64 161 -129 83 -66 182 -144 220 -175 39 -31 86 -68
105 -83 31 -24 433 -341 470 -371 14 -12 200 -159 227 -180 9 -6 16 -1 25 17
10 24 9 28 -11 42 -12 9 -48 37 -80 62 -32 26 -76 61 -97 77 -21 17 -86 68
-144 115 -59 47 -122 97 -141 111 -19 15 -115 91 -215 170 -100 79 -196 155
-214 169 -18 14 -41 32 -50 40 -10 8 -52 42 -95 75 -43 33 -83 65 -89 70 -9 9
-279 221 -311 246 -6 5 -16 0 -23 -11z"/>
<path d="M1647 4428 c-22 -12 -21 -27 2 -47 19 -17 165 -133 496 -394 110 -87
207 -164 216 -171 10 -8 48 -38 85 -67 38 -30 105 -83 150 -119 44 -36 95 -76
114 -90 18 -14 50 -38 70 -55 21 -16 55 -44 76 -61 22 -17 260 -206 529 -419
270 -213 499 -394 510 -403 11 -10 49 -40 85 -67 36 -28 67 -53 68 -57 6 -13
29 -9 43 8 15 18 8 26 -126 129 -42 33 -85 67 -95 75 -10 8 -86 69 -170 135
-84 66 -177 140 -207 164 -31 24 -124 98 -207 164 -83 65 -167 132 -186 147
-19 16 -127 101 -240 190 -113 89 -221 175 -240 190 -77 62 -159 126 -190 150
-18 14 -38 30 -44 35 -6 6 -128 103 -272 216 -143 113 -303 240 -355 281 -75
60 -99 74 -112 66z"/>
<path d="M1552 4299 c-7 -10 -12 -20 -12 -23 0 -2 37 -32 83 -67 45 -35 88
-69 95 -76 7 -7 41 -34 75 -60 34 -26 152 -120 263 -208 111 -88 304 -241 429
-340 126 -99 288 -227 360 -285 73 -58 149 -118 170 -135 21 -16 75 -59 120
-95 45 -36 100 -78 121 -95 41 -32 199 -158 224 -178 8 -7 112 -88 230 -181
118 -93 223 -176 233 -185 16 -13 20 -13 37 5 20 20 20 20 -126 134 -80 63
-151 120 -158 126 -6 5 -68 55 -137 110 -70 54 -238 188 -375 296 -137 108
-343 271 -459 363 -115 91 -226 178 -245 194 -19 16 -73 59 -120 95 -47 37
-94 74 -104 83 -11 8 -67 53 -125 99 -58 46 -203 160 -321 254 -118 94 -222
175 -231 180 -11 6 -19 3 -27 -11z"/>
<path d="M1460 4171 c-9 -17 -4 -24 27 -48 21 -15 40 -30 43 -33 3 -3 25 -22
50 -41 222 -175 370 -292 440 -348 19 -16 127 -101 240 -190 113 -89 212 -167
220 -174 8 -7 92 -72 185 -146 94 -74 204 -162 246 -195 42 -34 91 -73 110
-88 19 -14 90 -71 159 -125 158 -126 494 -392 582 -461 58 -46 70 -52 88 -42
11 6 20 14 20 19 0 5 -77 69 -171 142 -94 74 -181 142 -193 153 -11 10 -37 30
-56 45 -19 14 -37 28 -40 31 -3 3 -90 73 -195 155 -195 154 -274 216 -335 265
-85 68 -300 237 -330 260 -18 14 -41 32 -50 40 -10 8 -35 29 -56 45 -21 17
-81 64 -133 106 -265 210 -510 403 -540 427 -19 15 -60 47 -91 72 -31 25 -72
56 -90 70 -18 14 -47 37 -64 52 -37 33 -52 35 -66 9z"/>
<path d="M1382 4058 c-27 -27 -57 0 523 -458 422 -334 519 -410 535 -423 8 -7
35 -28 60 -47 24 -19 56 -45 70 -56 14 -12 117 -95 230 -183 113 -89 221 -174
240 -190 19 -16 73 -59 120 -95 47 -37 103 -81 124 -99 21 -18 60 -48 85 -67
25 -20 104 -81 175 -138 70 -56 134 -102 140 -102 7 0 20 6 30 13 17 13 17 14
-7 29 -13 9 -30 23 -38 30 -8 8 -32 27 -54 43 -22 17 -42 32 -45 35 -7 8 -62
51 -96 78 -27 20 -228 179 -279 221 -11 9 -38 29 -60 46 -22 16 -51 39 -65 51
-14 12 -117 95 -230 183 -113 89 -212 167 -220 174 -8 7 -35 28 -60 47 -25 19
-47 37 -50 40 -3 3 -61 50 -130 104 -69 54 -141 111 -160 126 -79 63 -510 404
-578 458 -41 31 -79 62 -85 67 -7 6 -41 33 -77 60 -36 28 -66 53 -68 58 -5 10
-16 9 -30 -5z"/>
<path d="M1302 3937 c-24 -31 -19 -38 65 -104 49 -37 97 -75 108 -85 30 -24
363 -288 415 -328 25 -19 47 -37 50 -40 3 -3 41 -34 85 -68 44 -35 87 -68 95
-75 8 -7 49 -39 90 -72 41 -32 127 -100 190 -150 294 -233 949 -751 985 -779
22 -17 42 -33 45 -36 14 -16 67 -46 78 -44 6 1 19 2 27 3 8 0 15 4 15 9 0 4
-57 52 -127 107 -70 55 -242 191 -382 303 -141 111 -289 228 -329 260 -41 31
-79 62 -85 67 -7 6 -117 94 -246 195 -128 102 -317 252 -420 333 -102 82 -210
167 -240 189 -30 23 -64 49 -75 59 -12 10 -92 74 -178 142 -110 88 -160 122
-166 114z"/>
<path d="M1212 3808 c-7 -7 -12 -17 -12 -23 0 -6 68 -65 151 -131 139 -110
313 -248 349 -277 8 -7 101 -79 205 -162 105 -82 314 -248 465 -368 151 -120
290 -230 309 -245 37 -29 196 -155 221 -175 303 -243 347 -275 393 -279 25 -3
44 -2 42 2 -2 4 -30 27 -62 51 -32 24 -60 46 -63 49 -6 7 -512 408 -580 460
-25 19 -47 37 -50 40 -3 3 -111 89 -240 190 -129 102 -237 187 -240 190 -3 3
-79 64 -170 135 -91 71 -170 134 -177 140 -14 12 -22 18 -83 65 -25 19 -54 42
-65 52 -11 9 -81 64 -155 123 -74 59 -154 122 -177 141 -48 39 -45 38 -61 22z"/>
<path d="M1120 3671 c-9 -17 -4 -24 27 -48 21 -15 40 -30 43 -34 3 -3 52 -42
110 -88 58 -45 112 -87 120 -94 8 -7 69 -55 135 -107 66 -52 134 -105 151
-119 17 -15 48 -39 69 -56 36 -28 192 -151 225 -178 8 -7 44 -35 80 -62 36
-28 70 -55 77 -61 7 -7 58 -47 113 -90 56 -44 114 -89 128 -102 53 -45 373
-283 440 -326 79 -51 152 -89 159 -83 2 3 -11 15 -29 28 -18 13 -39 29 -46 36
-7 7 -41 34 -75 60 -34 26 -100 78 -147 116 -108 86 -94 75 -235 187 -66 52
-205 162 -310 245 -104 83 -242 191 -305 240 -63 50 -120 94 -126 100 -6 5
-26 22 -45 37 -19 14 -84 66 -145 115 -62 48 -126 99 -144 113 -18 14 -40 32
-50 40 -10 8 -32 26 -50 40 -18 14 -57 44 -85 68 -58 47 -70 50 -85 23z"/>
<path d="M1039 3548 c-11 -20 -8 -25 22 -50 19 -15 171 -135 339 -268 168
-132 313 -247 322 -255 9 -7 72 -57 140 -110 68 -54 139 -110 158 -125 36 -28
435 -345 458 -363 14 -11 44 10 40 28 -2 7 -52 51 -113 99 -60 48 -117 93
-126 100 -9 7 -101 80 -205 162 -104 81 -191 151 -194 154 -3 3 -23 19 -45 35
-22 17 -42 32 -45 36 -7 8 -713 564 -727 572 -7 5 -17 -2 -24 -15z"/>
<path d="M953 3421 c-13 -20 -8 -25 266 -240 18 -14 116 -91 216 -171 100 -80
294 -234 431 -342 137 -108 314 -249 394 -312 80 -63 147 -115 150 -116 6 0
33 41 28 45 -35 29 -428 340 -493 390 -49 38 -92 72 -95 75 -3 3 -52 43 -110
89 -58 45 -121 95 -140 110 -19 16 -73 59 -120 95 -47 37 -92 72 -100 79 -8 7
-35 28 -60 47 -25 19 -47 37 -50 40 -3 3 -34 28 -70 55 -36 28 -67 52 -70 56
-15 16 -150 119 -157 119 -5 0 -14 -9 -20 -19z"/>
<path d="M869 3299 c-13 -25 -22 -16 168 -166 70 -56 169 -133 218 -172 50
-40 105 -84 124 -99 61 -48 256 -203 271 -215 8 -7 33 -26 55 -42 22 -17 46
-36 53 -42 7 -7 41 -34 75 -60 34 -26 64 -50 67 -53 6 -6 138 -111 190 -150
18 -14 38 -29 44 -35 6 -5 32 -27 59 -47 26 -21 66 -53 90 -72 l42 -34 17 22
c16 22 14 24 -154 157 -93 74 -218 172 -277 219 -121 96 -327 260 -541 429
-80 63 -179 142 -221 175 -42 34 -100 79 -129 101 -28 22 -64 50 -78 63 -48
41 -60 45 -73 21z"/>
<path d="M783 3170 c-11 -17 -8 -22 25 -47 20 -15 39 -30 42 -34 3 -3 59 -48
125 -100 66 -51 167 -131 225 -177 148 -118 395 -314 475 -377 21 -16 106 -84
189 -150 430 -342 374 -301 391 -279 8 11 15 21 15 24 0 3 -34 32 -77 65 -42
33 -125 98 -184 145 -59 47 -121 96 -139 110 -18 14 -38 30 -44 35 -10 9 -46
38 -201 160 -41 32 -200 158 -225 178 -8 7 -71 56 -140 111 -129 101 -152 120
-256 202 -34 27 -76 60 -94 74 -18 14 -47 37 -64 52 -37 33 -47 34 -63 8z"/>
<path d="M702 3049 c-7 -10 -12 -21 -12 -23 0 -2 46 -40 101 -83 56 -43 106
-83 113 -88 6 -6 153 -123 326 -260 173 -137 383 -303 465 -368 83 -65 157
-124 165 -130 8 -7 29 -23 46 -37 17 -14 45 -36 64 -50 18 -14 38 -30 44 -35
6 -6 41 -34 77 -62 l66 -52 13 24 c7 14 11 26 9 28 -15 12 -130 103 -159 126
-19 16 -138 110 -265 210 -126 100 -237 187 -245 194 -8 7 -112 88 -230 182
-118 93 -229 181 -246 195 -17 14 -40 32 -50 40 -11 8 -71 56 -134 106 -141
111 -133 107 -148 83z"/>
<path d="M613 2921 c-11 -18 2 -32 160 -156 94 -75 179 -141 187 -148 8 -7 35
-28 60 -47 25 -19 54 -43 65 -52 32 -26 188 -150 225 -178 18 -14 52 -40 74
-58 23 -18 48 -39 56 -45 105 -83 209 -165 225 -179 24 -19 220 -173 261 -205
40 -31 81 -64 113 -90 32 -28 33 -28 49 -3 11 18 9 24 -19 48 -18 15 -42 33
-53 41 -12 8 -23 18 -26 21 -3 3 -34 28 -70 55 -36 28 -71 56 -78 63 -8 7 -30
25 -50 40 -20 15 -46 35 -57 44 -11 9 -60 49 -110 88 -49 39 -105 83 -124 98
-51 40 -441 349 -479 379 -18 14 -111 88 -207 164 -96 77 -178 139 -182 139
-5 0 -14 -9 -20 -19z"/>
<path d="M531 2798 c-16 -26 -38 -5 244 -228 264 -208 251 -197 291 -230 17
-14 46 -36 64 -50 18 -14 52 -40 74 -58 23 -18 48 -39 56 -45 8 -7 29 -23 46
-37 17 -14 46 -36 64 -50 18 -14 52 -40 74 -58 59 -48 66 -53 116 -92 25 -19
47 -37 50 -40 3 -3 34 -28 70 -55 36 -28 67 -52 70 -56 4 -4 133 -106 218
-172 9 -7 18 -4 32 10 18 21 18 21 -103 116 -155 122 -676 533 -702 556 -11 9
-38 30 -60 46 -22 16 -42 32 -45 35 -9 11 -518 412 -535 422 -6 4 -17 -3 -24
-14z"/>
<path d="M441 2672 c-9 -18 -1 -28 77 -89 48 -38 211 -167 362 -287 151 -120
287 -228 302 -239 14 -12 104 -84 200 -159 95 -75 250 -198 343 -272 150 -119
171 -133 183 -119 6 9 12 22 12 27 -1 6 -33 36 -72 66 -39 30 -164 128 -277
218 -113 90 -221 175 -240 190 -123 97 -160 126 -195 155 -22 18 -63 50 -92
72 -28 22 -167 131 -307 243 -141 111 -263 205 -271 208 -8 3 -19 -3 -25 -14z"/>
<path d="M352 2559 c-7 -10 -12 -21 -12 -23 0 -3 59 -51 220 -179 169 -135
274 -218 360 -286 58 -46 121 -96 140 -111 19 -15 94 -74 165 -131 72 -56 162
-127 200 -158 39 -31 88 -69 109 -86 21 -16 88 -69 148 -117 61 -49 112 -88
115 -88 2 0 12 7 20 16 15 15 14 18 -13 43 -16 15 -47 40 -69 56 -22 17 -46
36 -53 43 -8 7 -30 25 -50 40 -21 15 -39 29 -42 32 -3 3 -34 28 -70 55 -36 28
-67 53 -70 56 -3 3 -52 42 -110 88 -58 45 -112 88 -121 95 -10 8 -48 38 -85
68 -62 48 -276 218 -364 288 -85 68 -338 267 -371 292 -34 25 -36 25 -47 7z"/>
<path d="M277 2433 c-19 -19 -1 -47 62 -95 38 -29 149 -117 247 -195 168 -133
556 -440 633 -501 19 -15 94 -74 167 -132 72 -58 148 -118 169 -134 20 -17 56
-45 79 -63 47 -37 58 -40 77 -17 11 14 10 19 -7 33 -12 9 -90 70 -174 136 -84
66 -169 134 -189 150 -21 17 -52 41 -71 55 -18 14 -40 32 -50 40 -10 8 -32 26
-50 40 -18 14 -70 54 -114 90 -45 36 -133 106 -196 155 -63 49 -117 92 -120
95 -15 17 -442 350 -449 350 -4 0 -11 -3 -14 -7z"/>
<path d="M217 2273 c-3 -16 -5 -28 -4 -29 3 0 210 -164 532 -419 143 -113 293
-231 333 -263 40 -31 83 -65 95 -76 12 -10 49 -39 82 -64 33 -26 98 -77 145
-115 47 -37 92 -73 100 -80 9 -7 23 -18 32 -25 13 -10 22 -11 37 -2 12 6 21
14 21 19 0 5 -37 37 -82 72 -46 35 -92 71 -103 80 -27 23 -135 108 -172 137
-16 12 -43 33 -59 46 -16 14 -112 90 -214 171 -102 80 -192 151 -200 158 -16
13 -245 194 -388 306 -46 36 -95 76 -110 88 -34 29 -39 29 -45 -4z"/>
<path d="M187 2114 c-3 -17 2 -33 17 -49 11 -13 242 -197 511 -410 270 -212
497 -392 506 -399 140 -116 171 -135 195 -124 13 6 24 14 23 17 0 3 -32 31
-71 61 -39 30 -139 109 -222 175 -218 173 -601 477 -725 573 -58 46 -115 91
-126 100 -11 9 -39 32 -61 49 l-42 33 -5 -26z"/>
<path d="M190 1916 c0 -36 17 -53 140 -146 18 -14 41 -32 50 -40 10 -8 80 -64
156 -125 231 -182 525 -415 589 -467 48 -38 68 -48 97 -48 21 0 38 5 38 10 0
6 -4 10 -8 10 -5 0 -17 8 -28 18 -10 10 -89 73 -174 140 -85 68 -171 136 -190
151 -19 16 -127 101 -240 190 -113 89 -212 167 -220 174 -9 7 -59 47 -113 90
l-97 78 0 -35z"/>
<path d="M246 1683 c7 -16 14 -33 14 -39 0 -6 25 -31 56 -55 31 -24 61 -49 68
-54 6 -6 58 -48 116 -93 58 -46 112 -88 120 -95 8 -7 35 -28 60 -47 25 -19 47
-37 50 -40 34 -35 197 -153 222 -161 93 -26 79 -9 -125 154 -458 364 -577 457
-586 457 -6 0 -3 -12 5 -27z"/>
</g>
</svg>
